<svg xmlns="http://www.w3.org/2000/svg" xml:space="preserve" id="svg1" version="1.1" viewBox="0 0 179.17 122.168">
    <g id="layer1" transform="translate(-.415 -28.916)">
        <path id="path1" fill="#fff" stroke-width="1.407"
            d="M89.93 151.084c-41.098 0-73.892-24.35-89.515-61.084C16.18 53.265 48.973 28.916 89.93 28.916S163.82 53.266 179.585 90c-15.764 36.735-48.698 61.084-89.655 61.084zm0-14.638c32.512 0 60.52-19 73.61-46.446-13.09-27.445-41.098-46.446-73.61-46.446-32.372 0-60.38 19-73.47 46.446 12.949 27.445 40.957 46.446 73.47 46.446zM55.87 90c0-18.86 15.2-34.06 33.919-34.06 18.86 0 34.06 15.34 34.06 34.06 0 18.86-15.34 34.06-34.06 34.06-18.72 0-33.92-15.34-33.92-34.06zm36.03-8.586c0 5.912 4.645 10.697 10.697 10.697 5.77 0 10.556-4.785 10.556-10.697 0-5.77-4.645-10.555-10.556-10.555-5.912 0-10.697 4.644-10.697 10.555z" />
    </g>
</svg>