<svg xmlns="http://www.w3.org/2000/svg" xml:space="preserve" id="svg1" version="1.1" viewBox="0 0 177.714 159.439">
    <g id="layer1" transform="translate(-1.143 -10.28)">
        <path id="path1" fill="#fff" stroke-width=".362"
            d="M175.432 42.095 91.089 10.513a3.72 3.72 0 0 0-2.588 0L3.569 42.316c-1.49.433-3.294 2.787-1.96 5.197v89.175c0 1.576.999 2.975 2.488 3.49l83.575 28.846c.496.285.879.536 1.755.652 1.227.163 2.004-.182 2.01-.184l84.932-29.313a3.694 3.694 0 0 0 2.488-3.491V45.774c.031-1.77-2.044-3.19-3.425-3.68zm-11.235 3.679-74.18 27.778-22.262-8.334 70.653-29.101Zm-35.948-13.462-74.244 30.58-1.829 17.76-13.822-5.568V58.601l77.005-31.116Zm-38.454-14.4 15.336 5.743-71.37 28.834-18.15-6.797Zm-80.8 33.352 21.974 8.229v20.575l27.55 11.1L60.636 70.6l25.905 9.7v80.52L8.995 134.056Zm162.477 82.791L93.926 160.82V80.136L171.472 51.1Z" />
    </g>
</svg>