<svg xmlns="http://www.w3.org/2000/svg" xml:space="preserve" viewBox="0 0 159.5 177.222">
    <path fill="#fff"
        d="M79.75 141.777c4.888 0 8.861-3.972 8.861-8.862V62.026c0-4.891-3.973-8.86-8.862-8.86-4.891 0-8.86 3.97-8.86 8.86v70.89c0 4.889 3.969 8.861 8.86 8.861zm70.888-124.056h-26.583v-8.86c0-4.892-3.973-8.862-8.862-8.862H44.306c-4.892 0-8.86 3.97-8.86 8.862v8.86H8.861a8.861 8.861 0 1 0 0 17.722v124.055c0 9.787 7.935 17.723 17.722 17.723h106.332c9.787 0 17.724-7.935 17.724-17.723V35.443c4.889 0 8.86-3.97 8.86-8.86 0-4.89-3.973-8.862-8.862-8.862zm-17.722 141.777H26.584V35.443h106.332Zm-79.749-17.721c4.892 0 8.86-3.972 8.86-8.862V62.026c0-4.891-3.97-8.86-8.86-8.86-4.89 0-8.861 3.97-8.861 8.86v70.89c0 4.889 3.97 8.861 8.861 8.861zm53.166 0c4.889 0 8.86-3.972 8.86-8.862V62.026c0-4.891-3.971-8.86-8.86-8.86-4.89 0-8.862 3.97-8.862 8.86v70.89c.001 4.889 3.973 8.861 8.862 8.861z" />
</svg>